<?xml version="1.0" encoding="utf-8"?>
<!-- Generator: Adobe Illustrator 24.0.2, SVG Export Plug-In . SVG Version: 6.00 Build 0)  -->
<svg version="1.1" id="Слой_1" xmlns="http://www.w3.org/2000/svg" xmlns:xlink="http://www.w3.org/1999/xlink" x="0px" y="0px"
	 viewBox="0 0 56 56" style="enable-background:new 0 0 56 56;" xml:space="preserve">
<path style="fill:#FFC000;stroke:#FFFFFF;stroke-width:2;stroke-miterlimit:10;" d="M31.1,3l5.7,12c0.5,1.1,1.5,1.9,2.6,2L52,19
	c2.8,0.4,3.9,4,2,6.2l-9.1,9.3c-0.8,0.9-1.2,2.1-1,3.1l2.2,13.3c0.5,2.9-2.5,5.2-5,3.7l-11.3-6.3c-1-0.6-2.3-0.6-3.1,0l-11.6,6.3
	c-2.6,1.5-5.6-0.8-5.1-3.7l2.2-13.3c0.2-1.2-0.2-2.5-1-3.1l-9.1-9.2C0,23,1.1,19.5,4,19l12.6-2c1.2-0.2,2.2-0.9,2.6-2l5.7-12
	C26.1,0.3,29.8,0.3,31.1,3z"/>
</svg>
